<svg width="1253" height="517" viewBox="0 0 1253 517" fill="none" xmlns="http://www.w3.org/2000/svg">
<path d="M905.255 241C905.255 263.456 905.255 285.413 905.255 307.692C887.038 307.692 869.309 307.692 851.256 307.692C851.088 304.823 850.928 302.088 850.76 299.234C845.162 302.111 840.029 305.42 834.44 307.505C807.642 317.5 775.675 305.068 760.57 283.732C753.338 273.517 749.49 262.391 747.888 250.014C745.683 232.974 747.911 216.87 755.95 201.753C766.221 182.435 782.54 171.845 804.184 168.925C820.1 166.778 834.817 169.205 848.863 179.68C848.863 169.3 848.863 159.914 848.863 150.527C848.863 141.224 848.863 131.921 848.863 122.243C867.662 122.243 886.051 122.243 905.255 122.243C905.255 161.687 905.255 201.093 905.255 241ZM806.303 249.922C807.11 251.746 807.785 253.642 808.745 255.38C816.527 269.478 836.39 270.241 845.25 256.813C851.444 247.425 851.375 231 845.102 221.633C836.684 209.065 817.947 209.041 809.628 221.699C804.032 230.212 804.185 239.587 806.303 249.922Z" fill="#60A6F1"/>
<path d="M23 262.5L3 351.5V362L7.5 383.5L30.5 433L78 484.5L151 512.5L209 508L283 468.5L342 414.5L376 355L379 317.5L361 271L328.5 234L284 196.5L245 173L278 187.5L225.5 98L167.78 10L23 262.5Z" fill="#2A49BF" stroke="black"/>
<path d="M271 482L286.5 434.5L281.5 396C279 390 272.6 376.5 267 370.5C261.4 364.5 227.667 335 211.5 321L139.5 284.5L89 254.5L52 222.5L33.5 203L20.5 183L8.5 147.5V114L65.5 29L83 93.5L114 114L181 147.5L248 174L320.5 222.5L345 244C350.833 249.667 363.7 264.2 368.5 277C373.3 289.8 378.5 308.667 380.5 316.5L375.5 360L355.5 399.5L334 428.5L286.5 468L271 482Z" fill="#82B32E" stroke="black"/>
<path d="M488.138 269C488.138 282.124 488.138 294.747 488.138 307.692C469.282 307.692 450.887 307.692 432.118 307.692C432.118 245.9 432.118 184.224 432.118 122.204C450.658 122.204 469.047 122.204 488.064 122.204C488.064 141.677 488.064 161.03 488.064 181.429C500.292 171.118 513.935 167.797 528.293 168.218C557.473 169.073 578.721 184.71 581.965 216.399C582.741 223.976 583.009 231.63 583.056 239.252C583.194 261.896 583.105 284.542 583.105 307.603C564.293 307.603 545.734 307.603 526.525 307.603C526.448 306.017 526.291 304.273 526.289 302.529C526.272 282.54 526.295 262.551 526.262 242.562C526.257 238.9 526.266 235.216 525.896 231.581C525.052 223.294 520.355 217.684 513.305 216.15C505.642 214.483 496.035 217.745 492.95 224.474C490.395 230.048 488.893 236.398 488.349 242.531C487.586 251.126 488.144 259.838 488.138 269Z" fill="#60A6F1"/>
<path d="M683.43 335.373C672.937 349.303 658.777 356.179 642.327 358.87C636.548 359.816 630.214 361.904 624.939 360.482C612.719 357.187 599.225 356.636 589.086 346.761C595.116 334.265 601.235 321.584 607.553 308.491C610.201 309.808 612.415 311.34 614.865 312.016C617.681 312.793 620.708 312.798 623.638 313.172C624.43 313.273 625.262 313.364 625.98 313.679C629.917 315.411 637.411 314.595 639.972 311.376C641.002 310.082 640.947 307.116 640.241 305.375C632.797 287.029 625.122 268.776 617.51 250.498C609.003 230.07 600.519 209.631 591.972 189.219C589.529 183.383 586.904 177.623 583.923 170.828C588.023 170.828 590.803 170.828 593.584 170.828C608.248 170.828 622.914 170.942 637.576 170.749C641.278 170.7 642.934 171.738 644.302 175.423C652.352 197.103 660.793 218.639 669.128 240.214C669.349 240.786 669.867 241.244 670.84 242.557C673.117 237.182 675.261 232.454 677.142 227.623C684.176 209.561 691.08 191.448 698.206 173.423C698.664 172.265 700.58 170.96 701.83 170.948C718.644 170.784 735.46 170.838 753.142 170.838C750.29 178.003 747.675 184.641 745.009 191.258C728.298 232.734 711.706 274.259 694.727 315.625C691.914 322.477 687.395 328.628 683.43 335.373Z" fill="#60A6F1"/>
<path d="M250.071 496.16C239.744 500.447 229.606 505.295 219.033 508.853C209.713 511.989 200.018 514.565 190.287 515.77C180.625 516.966 170.711 516.039 160.911 516.227C143.693 516.559 127.102 512.61 111.344 506.615C91.7306 499.154 73.6786 488.735 57.7486 474.406C44.4042 462.403 33.5187 448.799 23.9929 433.204C24.1834 432.281 24.3297 431.996 24.532 431.758C24.5909 431.688 24.8692 431.693 24.9464 431.767C26.9323 433.688 28.8131 437.159 30.8959 437.284C38.9789 437.766 47.127 436.975 55.2478 437.039C81.8171 437.246 108.385 437.772 134.954 437.869C148.404 437.918 161.856 437.162 175.31 437.038C192.128 436.881 208.949 436.943 225.768 437.037C230.493 437.063 235.215 437.744 239.938 437.737C244.957 437.73 249.976 437.262 254.997 437.461C255.36 457.689 250.761 476.645 244.813 495.273C247.121 495.662 248.596 495.911 250.071 496.16Z" fill="#2139B6"/>
<path d="M1132.29 183.25C1149.4 171.758 1168.24 167.521 1188.13 168.217C1208.74 168.939 1227.84 174.326 1241.98 190.664C1245.73 194.987 1248.4 200.257 1251.38 205.205C1252.72 207.431 1252.63 209.375 1249.69 210.758C1236.3 217.04 1223.01 223.501 1209.89 229.798C1206.73 226.141 1203.7 222.523 1200.56 219.009C1194.11 211.8 1186.03 210.796 1177.37 213.65C1167.98 216.744 1163.26 223.953 1162.21 233.443C1161.89 236.324 1163.36 239.361 1163.58 242.359C1163.79 245.155 1162.63 248.249 1163.45 250.766C1166.05 258.758 1171.66 264.166 1180 265.774C1188.95 267.499 1196.93 265.083 1202.92 257.935C1205.45 254.916 1207.38 251.387 1209.41 248.341C1222.44 254.788 1235.27 261.261 1248.22 267.468C1251.77 269.168 1252.79 270.947 1250.9 274.612C1245.13 285.791 1238.06 295.763 1226.07 300.926C1218.41 304.222 1210.73 308.101 1202.67 309.664C1194.82 311.185 1186.46 310.017 1178.33 310.156C1159.66 310.474 1142.74 303.565 1128.64 292.927C1116.55 283.799 1108.09 270.025 1105.32 254.223C1101.74 233.797 1104.51 214.428 1117.52 197.635C1121.61 192.351 1127.16 188.188 1132.29 183.25Z" fill="#60A6F1"/>
<path d="M1.06781 356.013C0.948151 354.628 0.828522 353.243 1.11011 351.206C1.30701 348.357 1.10269 346.16 0.898376 343.964C0.921906 341.598 0.945465 339.232 1.07419 336.25C1.15015 335.087 1.12091 334.54 1.09167 333.994C2.57513 326.338 3.86881 318.639 5.61057 311.043C6.71927 306.208 8.49274 301.525 10.3912 296.454C10.8803 297.583 11.3008 299.126 10.9467 300.463C9.81009 304.758 8.38702 308.977 6.82718 314.025C9.6124 314.402 11.8182 314.94 14.0294 314.963C39.9641 315.239 65.8993 315.488 91.8351 315.622C98.7179 315.657 105.602 315.184 112.487 315.109C124.723 314.976 137.022 314.251 148.892 318.376C149.482 318.581 150.304 318.12 151.348 317.976C152.119 317.99 152.56 317.996 153 318.001C153 318.001 152.997 318 153.143 318.286C154.192 319.056 155.096 319.539 156.164 320.266C156.88 320.676 157.431 320.842 158.185 321.28C170.039 328.749 181.698 335.934 193.339 343.148C205.643 350.772 216.54 360.056 225.617 370.993C222.876 370.324 220.554 369.164 218.194 369.082C203.988 368.584 189.775 368.167 175.561 368.031C131.859 367.613 88.1554 367.233 44.4514 367.06C30.9698 367.006 17.4855 367.663 3.83899 367.618C3.45364 364.791 3.40936 362.308 2.9411 359.907C2.67426 358.539 1.71518 357.306 1.06781 356.013Z" fill="#3459C8"/>
<path d="M935.04 308.019C931.899 308.019 929.253 308.019 926.178 308.019C926.178 262.311 926.178 216.945 926.178 171.203C943.788 171.203 961.362 171.203 979.527 171.203C979.527 175.273 979.527 179.339 979.527 182.747C986.526 178.982 993.001 174.435 1000.19 171.928C1007.52 169.371 1015.54 168.819 1023.74 167.302C1023.74 184.895 1023.74 201.141 1023.74 218C1019.46 218 1015.35 218.079 1011.25 217.987C988.813 217.484 982.293 230.127 982.181 246.81C982.058 265.142 982.143 283.475 982.138 301.808C982.137 303.624 982.137 305.44 982.137 308.019C966.385 308.019 950.96 308.019 935.04 308.019Z" fill="#60A6F1"/>
<path d="M43.4075 218.047C37.4144 210.009 31.3999 201.987 25.4503 193.918C24.5054 192.636 23.8524 191.139 23.3272 189.415C27.0011 193.277 30.6573 192.693 35.6337 191.287C53.1085 186.349 70.8319 182.285 88.4836 177.983C91.3071 177.295 92.3525 175.733 92.3455 173.039C96.172 175.602 99.5118 178.35 103.159 180.599C117.05 189.164 131.04 197.568 145.192 206.303C158.737 213.96 172.106 221.304 185.419 228.747C191.33 232.051 197.13 235.555 203.022 239.322C205.828 242.297 208.594 244.919 211.801 247.959C204.966 250.202 199.447 252.414 193.729 253.813C178.758 257.475 163.694 260.756 148.68 264.243C140.444 266.155 132.199 268.05 124.047 270.28C122.781 270.626 121.995 272.725 120.62 273.998C118.131 272.776 115.999 271.587 113.889 270.36C88.9684 255.855 64.9029 240.21 45.1182 218.843C44.7227 218.416 43.9854 218.305 43.4075 218.047Z" fill="#82B32E"/>
<path d="M1091.14 248C1091.14 268.118 1091.14 287.737 1091.14 307.686C1072.3 307.686 1053.91 307.686 1035.13 307.686C1035.13 262.249 1035.13 216.903 1035.13 171.192C1053.62 171.192 1072.01 171.192 1091.14 171.192C1091.14 196.677 1091.14 222.089 1091.14 248Z" fill="#60A6F1"/>
<path d="M1.01215 356.473C1.71518 357.306 2.67426 358.539 2.9411 359.907C3.40936 362.308 3.45364 364.791 3.83801 368.054C6.81998 380.564 9.7146 392.244 12.4138 403.968C13.2411 407.562 15.4056 408.195 18.6232 408.04C27.8959 407.593 37.1754 407.226 46.4565 407.033C54.189 406.872 61.9283 407.062 69.6629 406.964C72.1216 406.933 74.5846 406.184 77.0291 406.265C92.1776 406.763 107.317 407.678 122.468 407.929C140.528 408.229 158.596 407.99 176.66 408.004C186.922 408.012 197.185 408.066 207.447 408.086C221.307 408.113 235.224 405.544 249.301 409.226C251.394 418.633 253.195 427.814 254.995 436.995C249.976 437.262 244.957 437.729 239.938 437.737C235.215 437.744 230.493 437.063 225.768 437.036C208.949 436.943 192.128 436.881 175.31 437.037C161.856 437.162 148.404 437.918 134.954 437.869C108.385 437.772 81.8171 437.246 55.2478 437.039C47.127 436.975 38.9789 437.766 30.8959 437.284C28.8131 437.159 26.9323 433.688 24.9464 431.767C24.8692 431.693 24.5909 431.688 24.532 431.757C24.3297 431.995 24.1834 432.281 23.9773 432.847C9.72113 409.719 1.32312 384.537 1.01215 356.473Z" fill="#2744BC"/>
<path d="M334.839 428.305C320.276 441.499 305.887 454.894 291.074 467.801C284.021 473.947 276.16 479.166 268.156 484.748C270.955 471.882 274.982 459.206 277.398 446.229C280.89 427.472 279.242 408.905 272.403 390.886C266.253 374.683 255.833 361.507 243.979 349.045C246.273 348.7 248.492 349.046 250.546 348.613C257.122 347.224 263.653 345.61 270.171 343.967C283.115 340.703 296.04 337.361 308.106 334.273C308.507 330.612 308.761 328.296 309.322 326.149C316.331 338.351 321.159 350.936 321.025 365.452C322.79 390.184 314.713 412.075 303.517 434.351C306.041 433.285 307.177 432.595 308.405 432.322C317.123 430.385 325.409 425.543 334.839 428.305Z" fill="#679826"/>
<path d="M148.925 1.19373C155.072 1.9599 161.219 2.72614 167.68 3.74689C167.995 4.0014 167.991 3.94843 167.577 4.03308C162.41 4.42163 157.651 5.04059 152.902 4.97412C134.006 4.70947 116.655 9.87561 101.243 20.5548C82.8499 33.2999 75.8688 50.5721 81.2108 70.8884C85.0087 85.3326 93.9669 96.6477 105.647 106.268C106.177 106.803 106.533 107.056 107.028 107.549C107.775 108.192 108.383 108.596 109.146 109.273C110.172 110.115 111.043 110.682 112.006 111.448C112.296 111.886 112.549 112.018 113.054 112.322C125.023 119.456 136.794 126.311 148.338 133.557C146.13 134.964 144.25 136.374 142.147 136.91C138.803 137.762 135.249 137.779 131.891 138.592C119.51 141.588 107.153 144.693 94.8265 147.907C88.5366 149.547 82.3299 151.507 76.1974 153.289C77.3401 156.438 78.1699 158.724 78.7016 160.862C64.7962 147.929 53.9014 133.396 48.8375 114.657C45.2473 101.434 44.7002 88.4434 47.7564 75.4833C51.9653 57.6344 60.7081 42.5317 74.3562 29.9164C94.3275 11.4562 117.502 1.96551 144.646 1.95624C146.072 1.95575 147.499 1.45929 148.925 1.19373Z" fill="#AEDB39"/>
<path d="M243.828 349.38C255.833 361.507 266.253 374.683 272.403 390.886C279.242 408.905 280.89 427.472 277.398 446.229C274.982 459.206 270.955 471.882 267.861 484.922C262.307 488.769 256.54 492.386 250.422 496.082C248.596 495.911 247.121 495.662 244.813 495.273C250.761 476.645 255.36 457.689 254.997 437.46C253.195 427.814 251.394 418.633 249.297 408.831C244.868 393.627 236.585 381.608 226.017 371C216.54 360.056 205.643 350.772 193.339 343.148C181.698 335.934 170.039 328.749 158.408 321.023C161.434 320.989 164.44 321.484 167.446 321.979C165.918 318.557 163.605 316.587 162.148 314.113C158.113 307.262 153.824 300.825 148.188 294.981C145.375 292.065 142.615 288.375 140.344 284.966C142.263 285.738 143.858 286.437 145.676 287.402C146.923 288.136 147.947 288.603 149.204 289.321C160.598 295.483 171.759 301.394 183.148 307.545C187.808 310.228 192.241 312.671 196.878 315.373C198.037 316.138 198.992 316.643 200.097 317.354C200.712 317.746 201.177 317.934 201.852 318.377C203.021 319.123 203.98 319.615 204.967 320.07C204.996 320.034 204.908 320.063 205.084 320.322C205.809 320.887 206.358 321.192 207.135 321.725C219.517 331.095 231.673 340.238 243.828 349.38Z" fill="#223BAB"/>
<path d="M202.981 238.967C197.13 235.555 191.33 232.051 185.419 228.747C172.106 221.304 158.737 213.96 145.157 205.94C144.264 203.871 143.605 202.438 142.593 200.238C148.841 198.746 154.551 197.419 160.243 196.015C174.001 192.62 187.769 189.263 201.496 185.745C209.773 183.623 218.058 181.475 226.193 178.877C232.423 176.887 239.868 177.861 244.847 171.868C253.246 176.152 261.316 180.349 269.392 184.533C273.596 186.711 277.811 188.867 282.021 191.033C282.021 191.033 281.99 191.006 281.952 191.271C282.234 191.731 282.553 191.925 282.872 192.119C287.48 195.167 292.087 198.214 296.905 201.91C298.112 203.015 299.107 203.473 300.103 203.93C300.103 203.93 300.02 203.979 300.071 204.299C301.119 205.066 302.115 205.513 303.112 205.96C303.437 205.983 303.694 206.128 304.077 206.864C304.609 207.452 304.945 207.57 305.282 207.688C305.282 207.688 305.397 207.592 305.26 207.981C304.366 208.914 303.684 209.711 302.841 209.959C298.716 211.17 294.536 212.196 290.396 213.357C279.095 216.526 267.871 219.996 256.493 222.854C240.805 226.796 224.973 230.166 209.293 234.139C207.557 234.579 206.413 237.359 204.66 239.035C203.876 239 203.429 238.984 202.981 238.967Z" fill="#9DCC34"/>
<path d="M345.056 241.854C357.878 254.744 367.597 269.721 374.779 286.758C374.777 287.473 374.955 287.717 375.133 287.96C375.434 288.431 375.735 288.902 375.783 289.885C375.98 293.378 376.43 296.359 376.854 299.174C370.557 300.51 364.783 301.776 358.991 302.957C343.35 306.147 327.73 309.457 312.037 312.373C307.397 313.236 304.876 314.336 307.833 319.357C308 319.641 307.305 320.433 306.741 320.789C304.841 318.086 303.334 315.494 301.564 313.096C291.105 298.93 277.937 287.569 263.706 276.854C259.604 273.797 255.801 270.895 251.994 267.625C251.409 265.624 250.828 263.99 250.103 261.95C251.875 261.235 253.32 260.348 254.873 260.075C265.267 258.25 275.718 256.736 286.087 254.781C304.408 251.327 322.69 247.66 340.968 243.978C342.414 243.687 343.697 242.581 345.056 241.854Z" fill="#90BF2E"/>
<path d="M282.029 190.665C277.811 188.867 273.596 186.711 269.392 184.533C261.316 180.349 253.246 176.152 244.574 171.603C230.976 165.605 218.113 159.617 204.942 154.409C186.269 147.027 167.369 140.22 148.566 133.167C136.794 126.311 125.023 119.456 113.494 112.307C119.341 111.676 124.949 111.011 130.549 111.066C143.556 111.193 156.558 111.851 169.565 111.957C189.502 112.12 209.442 112.006 229.38 111.989C231.121 111.988 232.862 111.838 234.8 111.748C234.502 109.369 234.28 107.6 234.058 105.831C240.511 116.598 247.198 127.232 253.362 138.161C263.105 155.435 272.497 172.908 282.029 190.665Z" fill="#4E88E1"/>
<path d="M234.007 105.511C234.28 107.6 234.502 109.369 234.8 111.748C232.862 111.838 231.121 111.988 229.38 111.989C209.442 112.006 189.502 112.12 169.565 111.957C156.558 111.851 143.556 111.193 130.549 111.066C124.949 111.011 119.341 111.676 113.297 112.028C112.549 112.018 112.296 111.886 111.991 111.081C110.92 110.01 109.956 109.505 108.991 109C108.383 108.596 107.775 108.192 107.055 107.062C106.92 105.687 106.897 105.037 106.801 104.302C106.728 104.216 106.84 104.021 107.152 103.994C107.624 103.303 107.783 102.639 108.035 101.64C116.367 88.0684 124.607 74.8316 132.892 62.0138C132.804 66.5833 135.656 66.7678 138.63 66.6257C141.103 66.5078 143.566 66.031 146.035 66.024C164.7 65.9712 183.365 66.0626 202.029 65.8982C204.056 65.8804 206.071 64.5226 208.091 63.7864C213.322 71.9711 218.553 80.1558 223.922 88.9734C224.413 90.0611 224.766 90.5159 225.119 90.9706C225.417 91.4034 225.714 91.8362 226.022 92.9196C226.723 94.3686 227.413 95.167 228.103 95.9655C228.407 96.3953 228.71 96.8252 229.022 97.9086C229.732 99.3602 230.432 100.158 231.132 100.956C232.073 102.367 233.015 103.779 234.007 105.511Z" fill="#5594E7"/>
<path d="M151.018 317.969C150.304 318.12 149.482 318.581 148.892 318.376C137.022 314.251 124.723 314.976 112.487 315.109C105.602 315.184 98.7178 315.657 91.835 315.622C65.8993 315.488 39.9641 315.239 14.0294 314.963C11.8181 314.94 9.61237 314.402 6.82715 314.025C8.38699 308.977 9.81006 304.758 10.9467 300.463C11.3008 299.126 10.8803 297.583 10.4677 296.071C15.1279 283.184 20.1051 270.347 25.1571 257.541C26.9928 252.887 29.0073 248.304 31.3643 243.517C40.0518 249.999 48.0295 257.049 56.631 263.233C84.5822 283.326 115.374 298.591 145.616 314.768C147.147 315.588 149.094 315.63 150.889 316.356C150.96 317.108 150.989 317.538 151.018 317.969Z" fill="#3963CD"/>
<path d="M344.917 241.555C343.697 242.581 342.414 243.687 340.968 243.978C322.69 247.66 304.408 251.327 286.087 254.781C275.718 256.736 265.267 258.25 254.873 260.075C253.32 260.348 251.875 261.235 250.103 261.95C250.828 263.99 251.409 265.624 251.688 267.479C235.923 258.151 220.459 248.603 204.995 239.054C206.413 237.359 207.557 234.579 209.293 234.139C224.973 230.166 240.805 226.796 256.493 222.854C267.871 219.996 279.095 216.526 290.396 213.357C294.536 212.196 298.716 211.17 302.841 209.959C303.684 209.711 304.366 208.914 305.332 207.997C318.621 218.835 331.7 230.045 344.917 241.555Z" fill="#96C533"/>
<path d="M48.9808 115.018C53.9015 133.396 64.7963 147.929 78.8509 161.167C81.8701 164.408 84.442 167.196 86.7923 170.142C86.5653 170.701 86.5601 171.103 86.5548 171.505C87.0417 171.332 87.5286 171.159 88.3637 170.987C89.808 171.657 90.904 172.326 92 172.995C92.3525 175.733 91.3072 177.295 88.4836 177.983C70.8319 182.285 53.1086 186.349 35.6337 191.287C30.6573 192.693 27.0011 193.277 23.2209 189.069C14.8696 177.237 10.0161 164.134 6.96854 150.305C6.27609 147.163 5.85632 143.961 5.59302 140.288C6.47293 136.35 7.07086 132.91 7.66141 129.512C17.6393 127.23 27.6206 125.216 37.4284 122.561C40.9609 121.605 46.2176 121.947 46.4145 115.91C46.4251 115.585 48.0874 115.314 48.9808 115.018Z" fill="#90BF2E"/>
<path d="M307.012 320.988C307.305 320.433 308 319.641 307.833 319.357C304.876 314.336 307.397 313.236 312.037 312.373C327.73 309.457 343.35 306.147 358.991 302.957C364.783 301.776 370.557 300.51 376.854 299.174C376.429 296.359 375.98 293.378 375.803 290.18C382.048 303.75 383.666 318.233 382.547 333.632C382.098 336.128 382.081 338.077 382.064 340.026C382.053 340.47 382.042 340.915 381.626 341.738C381.217 343.112 381.215 344.106 381.212 345.101C381.159 345.527 381.105 345.953 380.644 346.745C380.228 348.107 380.22 349.104 380.212 350.101C380.159 350.526 380.107 350.952 379.61 351.761C377.531 352.763 375.944 353.603 374.255 353.961C365.714 355.77 357.139 357.424 348.588 359.19C339.397 361.088 330.22 363.049 321.037 364.982C321.159 350.936 316.331 338.351 309.288 325.812C308.302 323.866 307.657 322.427 307.012 320.988Z" fill="#82B32E"/>
<path d="M48.8375 114.657C48.0873 115.314 46.4251 115.585 46.4145 115.91C46.2176 121.947 40.9608 121.605 37.4283 122.561C27.6206 125.216 17.6393 127.23 7.66138 129.512C7.07084 132.91 6.47291 136.35 5.49442 139.897C4.3548 123.227 4.36484 106.466 10.3843 90.483C16.6406 73.8712 25.4885 58.9108 37.7457 45.716C54.2398 27.9603 73.7817 15.5527 96.5906 7.87976C113.302 2.258 130.46 0.232485 148.468 1.11951C147.499 1.45929 146.072 1.95575 144.646 1.95624C117.502 1.96552 94.3275 11.4562 74.3562 29.9164C60.7081 42.5317 51.9653 57.6344 47.7564 75.4833C44.7002 88.4434 45.2473 101.434 48.8375 114.657Z" fill="#9DCC34"/>
<path d="M150.848 316.035C149.094 315.63 147.147 315.588 145.616 314.768C115.374 298.591 84.5822 283.326 56.631 263.233C48.0296 257.049 40.0519 249.999 31.5154 243.177C35.1783 234.901 39.1144 226.793 43.229 218.365C43.9854 218.305 44.7227 218.416 45.1182 218.843C64.9029 240.21 88.9684 255.855 113.889 270.36C115.999 271.587 118.131 272.776 120.866 274.221C123.326 275.619 125.172 276.779 127.07 278.306C128.857 279.401 130.592 280.128 132.506 280.883C132.685 280.912 132.98 281.127 133.055 281.473C134.155 282.187 135.181 282.556 136.515 282.984C137.889 283.66 138.955 284.276 140.02 284.892C142.615 288.375 145.375 292.065 148.188 294.981C153.824 300.825 158.113 307.262 162.148 314.113C163.605 316.587 165.918 318.557 167.446 321.979C164.44 321.484 161.434 320.989 158.205 320.751C157.431 320.842 156.88 320.676 156.114 319.918C154.932 318.884 153.964 318.442 152.997 318C152.997 318 153 318 152.956 317.669C152.224 316.904 151.536 316.469 150.848 316.035Z" fill="#2744BC"/>
<path d="M1096.96 124.534C1098.07 137.297 1094.99 148.018 1083.68 154.454C1073.06 160.502 1061.73 161.644 1049.7 158.017C1039.94 155.073 1033.36 148.897 1030.31 139.828C1026.67 129.024 1029.16 116.055 1040.22 108.279C1054.48 98.2521 1079.15 99.8932 1090.33 112.088C1093.33 115.36 1094.78 120.052 1096.96 124.534Z" fill="#60A6F1"/>
<path d="M321.025 365.452C330.22 363.049 339.397 361.088 348.588 359.19C357.139 357.424 365.714 355.77 374.255 353.961C375.944 353.603 377.531 352.763 379.536 352.075C374.292 375.457 362.371 395.612 347.33 414.108C343.476 418.848 339.361 423.377 335.103 428.154C325.409 425.543 317.123 430.385 308.405 432.322C307.177 432.595 306.041 433.285 303.517 434.351C314.713 412.075 322.79 390.184 321.025 365.452Z" fill="#79AA2A"/>
<path d="M208.067 63.514C206.071 64.5226 204.056 65.8804 202.029 65.8982C183.366 66.0626 164.7 65.9712 146.035 66.024C143.566 66.031 141.103 66.5078 138.631 66.6257C135.656 66.7678 132.804 66.5833 132.944 61.7134C133.868 59.6344 134.787 58.2747 136.086 56.9068C136.943 55.8897 137.419 54.8808 137.885 53.9167C137.874 53.9615 137.818 53.8884 138.211 53.8754C139.036 52.757 139.466 51.6516 139.923 50.2858C140.451 49.3282 140.953 48.631 141.797 47.8369C142.406 47.1264 142.674 46.5128 142.944 45.9417C142.947 45.9841 142.877 45.9352 143.195 45.929C143.613 45.2472 143.713 44.5717 143.977 43.5941C151.446 32.1239 158.805 20.9907 165.995 9.74988C167.066 8.07562 167.345 5.89484 167.991 3.94843C167.991 3.94843 167.995 4.0014 167.969 3.99835C169.665 5.56781 171.79 6.87299 173.044 8.75745C179.742 18.8244 186.223 29.036 192.931 39.874C193.486 41.1396 193.89 41.7288 194.293 42.318C195.524 43.929 196.754 45.54 198.005 47.8531C198.72 49.3522 199.413 50.149 200.107 50.9458C200.107 50.9458 200.03 50.9825 200.051 51.2543C200.631 52.0056 201.19 52.4853 201.749 52.9649C202.83 54.6845 203.91 56.4042 205.007 58.8447C205.735 60.3618 206.446 61.1579 207.158 61.954C207.453 62.3832 207.747 62.8124 208.067 63.514Z" fill="#60A6F1"/>
<path d="M670.819 384.002C670.819 394.466 670.819 404.431 670.819 414.703C668.488 414.703 666.602 414.703 664.083 414.703C664.083 403.802 664.083 393.082 664.083 382.362C663.634 382.21 663.185 382.059 662.735 381.907C659.421 387.422 656.114 392.941 652.79 398.451C651.081 401.285 649.444 404.171 647.587 406.907C645.498 409.986 643.352 409.831 641.459 406.698C636.598 398.646 631.712 390.61 625.982 382.84C625.982 393.391 625.982 403.941 625.982 414.75C623.662 414.75 621.745 414.75 619.503 414.75C619.503 398.91 619.503 383.175 619.503 367.486C623.28 366.099 625.432 367.392 627.311 370.711C632.844 380.489 638.701 390.084 644.748 400.285C651.437 388.787 657.939 377.61 664.533 366.275C666.428 366.633 668.441 367.014 670.819 367.463C670.819 372.886 670.819 378.194 670.819 384.002Z" fill="#A7D43E"/>
<path d="M750.181 375.072C750.181 372.103 750.181 369.623 750.181 365.891C760.281 366.545 770.23 366.046 779.633 368.076C792.48 370.85 797.324 381.154 796.654 392.272C795.782 406.736 784.565 414.5 773.469 414.901C765.993 415.172 758.499 414.953 750.181 414.953C750.181 401.706 750.181 388.633 750.181 375.072ZM774.231 372.969C768.675 372.7 763.119 372.431 757.539 372.161C757.539 384.995 757.539 396.868 757.539 408.977C762.245 408.977 766.564 409.035 770.881 408.965C781.303 408.796 788.742 402.652 789.802 393.414C790.993 383.032 785.776 375.822 774.231 372.969Z" fill="#A7D43E"/>
<path d="M1215.08 367.868C1230.5 362.827 1244.63 369.063 1249.2 382.639C1253.58 395.615 1247.61 408.235 1234.89 413.957C1222.61 419.483 1206.64 412.624 1201.73 402.77C1198.75 396.802 1198.12 390.897 1199.57 385.334C1201.61 377.503 1206.56 371.057 1215.08 367.868ZM1243.48 394.682C1244.53 389.001 1243.5 383.762 1239.9 379.2C1234.47 372.334 1225.17 370.239 1216.97 373.905C1209.07 377.433 1204.89 385.703 1206.61 394.404C1208.34 403.191 1214.88 408.785 1224.03 409.306C1233.45 409.843 1240.34 404.885 1243.48 394.682Z" fill="#A7D43E"/>
<path d="M971.304 415.008C967.786 411.349 964.259 407.959 961.659 403.965C959.656 400.889 957.549 399.74 954.026 400.085C950.941 400.386 947.803 400.148 944.22 400.148C944.22 405.258 944.22 409.84 944.22 414.711C941.82 414.711 939.901 414.711 937.58 414.711C937.58 398.892 937.58 383.033 937.58 366.955C945.388 366.955 953.302 366.763 961.204 367.008C969.291 367.26 974.082 372.399 975.735 379.598C977.674 388.042 974.252 394.844 965.819 399.162C969.465 404.368 972.904 409.279 976.729 414.742C974.76 414.85 973.226 414.934 971.304 415.008ZM944.148 386.401C944.148 388.994 944.148 391.586 944.148 395.038C950.463 394.588 956.078 394.547 961.566 393.688C966.419 392.93 969.122 389.057 969.342 384.063C969.569 378.886 967.379 374.665 962.634 373.718C956.758 372.547 950.661 372.485 944.148 371.898C944.148 377.193 944.148 381.315 944.148 386.401Z" fill="#A7D43E"/>
<path d="M909.953 400.488C904.969 400.298 900.356 400.298 895.259 400.298C895.259 405.216 895.259 409.798 895.259 414.692C892.86 414.692 890.945 414.692 888.603 414.692C888.603 399.086 888.603 383.409 888.603 366.525C897.911 367.054 907.324 366.966 916.517 368.341C922.254 369.199 925.809 374.157 926.866 379.894C928.247 387.397 925.658 393.587 919.173 397.92C918.639 398.276 918.056 398.56 916.908 399.212C920.502 404.393 923.985 409.414 927.541 414.538C922.672 415.891 919.29 414.812 916.889 410.489C914.985 407.06 912.533 403.936 909.953 400.488ZM895.148 379.642C895.148 384.535 895.148 389.428 895.148 395.048C901.477 394.606 906.955 394.609 912.289 393.735C916.949 392.973 919.868 389.838 920.256 384.834C920.636 379.922 919.387 375.281 914.323 374.075C908.234 372.625 901.823 372.526 895.148 371.799C895.148 375.061 895.148 376.876 895.148 379.642Z" fill="#A7D43E"/>
<path d="M1137.12 414.332C1135.79 414.692 1134.78 414.738 1133.84 415.039C1132.23 415.56 1130.66 416.239 1129.08 416.851C1130.1 417.843 1131.47 418.663 1132.08 419.866C1132.99 421.65 1134.46 424.404 1133.75 425.5C1132.3 427.768 1129.8 430.011 1127.28 430.766C1124.98 431.456 1122.08 430.174 1119.44 429.761C1119.37 429.055 1119.31 428.349 1119.24 427.644C1120.58 427.328 1121.97 426.633 1123.26 426.77C1126.61 427.123 1129.39 427.106 1129.05 422.228C1124.75 422.48 1122.71 420.9 1125.29 416.143C1109.55 412.705 1101.95 402.933 1103.14 387.24C1103.87 377.484 1109.87 370.918 1119.03 367.964C1128.96 364.757 1138.83 363.997 1146.87 373.468C1145.65 374.74 1144.46 375.985 1143.02 377.494C1136.46 373.386 1129.34 371.41 1122 373.586C1118.97 374.485 1116.07 377.294 1114.09 379.963C1107.07 389.419 1110.88 399.453 1116.37 404.715C1123.3 411.365 1133.77 410.919 1143.37 403.563C1144.52 404.91 1145.75 406.353 1147.74 408.678C1143.98 410.677 1140.73 412.405 1137.12 414.332Z" fill="#A7D43E"/>
<path d="M1040.8 369.024C1042.88 370.388 1044.6 371.623 1046.8 373.194C1045.12 375.063 1043.76 376.579 1042.41 378.091C1032.6 369.67 1017.62 372.26 1012.45 379.732C1007.57 386.8 1008.14 397.331 1014.27 403.879C1020.89 410.951 1032.67 410.236 1038.64 406.733C1039.44 406.264 1039.76 404.491 1039.8 403.305C1039.94 399.346 1039.85 395.378 1039.85 391.076C1042.01 391.076 1043.74 391.076 1046.22 391.076C1046.22 396.797 1046.31 402.552 1046.13 408.299C1046.1 409.176 1044.99 410.231 1044.13 410.839C1029.99 420.777 1008.43 416.23 1003.18 398.522C1000.9 390.821 1001.08 382.911 1006.46 376.175C1013 367.985 1021.76 364.986 1031.98 366.34C1034.86 366.721 1037.62 368.018 1040.8 369.024Z" fill="#A7D43E"/>
<path d="M1189.94 398.112C1192.46 403.708 1194.87 408.97 1197.34 414.363C1190.37 415.602 1188.76 414.928 1187.2 408.701C1186.07 404.152 1183.92 402.5 1179.28 402.931C1174.83 403.345 1170.24 403.507 1165.83 402.899C1160.23 402.125 1157.4 404.674 1156.25 409.525C1155.08 414.43 1152.4 416.109 1146.96 414.459C1147.84 412.643 1148.84 410.926 1149.54 409.097C1151.79 403.269 1153.55 397.226 1156.18 391.587C1159.94 383.552 1164.12 375.699 1168.59 368.038C1169.27 366.871 1172.62 366.495 1174.41 366.971C1175.95 367.381 1177.44 369.327 1178.23 370.947C1181.46 377.567 1184.45 384.302 1187.43 391.04C1188.39 393.214 1189.04 395.527 1189.94 398.112ZM1178.88 388.652C1176.79 383.95 1174.71 379.248 1172.19 373.584C1168.55 381.985 1165.37 389.3 1162.04 396.964C1169.12 396.964 1175.39 396.964 1182.44 396.964C1181.22 394.124 1180.19 391.743 1178.88 388.652Z" fill="#A7D43E"/>
<path d="M1059.82 410.868C1058.38 415.992 1054.9 415.313 1050.73 414.565C1053.7 408.075 1056.56 401.834 1059.41 395.588C1063.28 387.115 1067.57 378.799 1070.79 370.089C1072.23 366.214 1074.55 367.15 1076.97 367.008C1079.47 366.861 1080.4 367.751 1081.54 370.568C1086.34 382.524 1092.01 394.129 1097.35 405.871C1098.64 408.69 1099.85 411.54 1101.13 414.47C1094.31 415.536 1092.74 414.873 1091.2 408.649C1090.06 404.069 1087.85 402.471 1083.24 402.934C1079.12 403.347 1074.87 403.482 1070.79 402.914C1064.52 402.04 1061.21 404.602 1059.82 410.868ZM1081.3 385.189C1079.75 381.637 1078.2 378.085 1076.24 373.565C1072.59 381.904 1069.38 389.253 1066.07 396.805C1073.05 396.805 1079.41 396.805 1086.35 396.805C1084.63 392.804 1083.14 389.333 1081.3 385.189Z" fill="#A7D43E"/>
<path d="M696.827 370.532C697.378 365.511 701.06 366.914 703.441 367.177C704.84 367.332 706.521 369.204 707.226 370.702C712.704 382.341 717.982 394.074 723.305 405.786C724.59 408.612 725.813 411.467 727.095 414.378C720.398 415.633 718.771 414.956 717.206 408.727C716.069 404.202 713.96 402.497 709.305 402.931C704.851 403.346 700.263 403.501 695.852 402.9C690.279 402.141 687.419 404.631 686.255 409.503C685.094 414.366 682.464 416.146 676.568 414.324C683.299 399.775 689.981 385.336 696.827 370.532ZM707.93 386.569C706.169 382.56 704.407 378.55 702.229 373.591C698.594 381.891 695.373 389.245 692.056 396.818C699.032 396.818 705.391 396.818 712.358 396.818C710.835 393.289 709.535 390.277 707.93 386.569Z" fill="#A7D43E"/>
<path d="M526.117 395.514C529.013 409.363 517.279 419.49 503.315 415.685C491.998 412.601 491.998 412.601 488.756 408.732C489.934 407.464 491.106 406.203 492.433 404.775C498.659 408.092 505.002 411.374 512.495 409.299C513.291 409.079 514.353 409.073 514.822 408.548C516.697 406.45 519.877 404.081 519.732 402.012C519.581 399.859 516.5 397.083 514.082 396.097C509.595 394.266 504.516 393.928 499.94 392.264C492.169 389.441 489.417 383.556 491.256 375.496C492.291 370.963 494.118 367.559 499.507 367.529C506.389 367.492 513.276 367.071 520.145 367.299C521.744 367.352 523.279 369.356 525.001 370.574C524.061 372.445 523.196 374.166 522.256 376.038C516.169 372.505 510.039 370.852 503.7 373.063C501.455 373.846 499.028 376.135 498.145 378.325C496.789 381.687 498.804 384.435 502.229 385.652C509.023 388.065 515.887 390.28 522.667 392.729C523.893 393.171 524.857 394.34 526.117 395.514Z" fill="#A7D43E"/>
<path d="M432.632 405.26C438.975 408.954 445.387 411.676 452.23 408.943C454.996 407.838 456.866 404.49 459.143 402.163C456.879 400.062 454.948 397.203 452.276 396.03C447.887 394.102 442.969 393.422 438.365 391.933C432.34 389.985 429.742 385.847 430.009 378.991C430.227 373.405 431.888 368.48 439.059 367.536C445.673 366.666 452.483 367.007 459.185 367.3C460.787 367.37 462.305 369.373 463.983 370.573C463.108 372.36 462.316 373.976 461.357 375.934C455.363 372.754 449.157 370.673 442.69 373.057C440.445 373.884 438.027 376.137 437.144 378.327C435.791 381.683 437.784 384.485 441.226 385.636C447.309 387.67 453.702 388.947 459.538 391.512C467.716 395.107 468.438 405.496 461.325 411.262C456.135 415.47 449.941 416.913 443.626 415.827C438.346 414.919 433.313 412.581 426.704 410.39C429.398 407.826 430.856 406.438 432.632 405.26Z" fill="#A7D43E"/>
<path d="M581.835 408.761C590.632 408.761 599.429 408.761 608.738 408.761C608.841 410.919 608.924 412.637 609.022 414.689C597.478 414.689 586.235 414.689 574.596 414.689C574.596 398.886 574.596 383.026 574.596 366.892C585.601 366.892 596.63 366.892 607.984 366.892C608.064 368.678 608.128 370.09 608.219 372.12C599.186 372.12 590.463 372.12 581.379 372.12C581.379 377.439 581.379 382.166 581.379 387.501C589.008 387.501 596.736 387.501 604.847 387.501C604.847 389.604 604.847 391.114 604.847 393.053C597.083 393.053 589.49 393.053 581.174 393.053C581.174 398.044 581.174 402.626 581.207 407.853C581.239 408.498 581.479 408.762 581.479 408.762L581.835 408.761Z" fill="#A5D436"/>
<path d="M813.836 408.762C822.633 408.762 831.429 408.762 840.738 408.762C840.841 410.916 840.923 412.631 841.022 414.689C829.477 414.689 818.235 414.689 806.596 414.689C806.596 398.886 806.596 383.026 806.596 366.892C817.601 366.892 828.63 366.892 839.984 366.892C840.064 368.677 840.128 370.09 840.219 372.119C831.188 372.119 822.461 372.119 813.379 372.119C813.379 377.439 813.379 382.166 813.379 387.5C821.008 387.5 828.736 387.5 836.847 387.5C836.847 389.6 836.847 391.107 836.847 393.053C829.083 393.053 821.49 393.053 813.174 393.053C813.174 398.044 813.174 402.626 813.207 407.853C813.239 408.498 813.479 408.762 813.479 408.762L813.836 408.762Z" fill="#A5D436"/>
<path d="M551.819 380.075C551.819 391.845 551.819 403.127 551.819 414.71C549.44 414.71 547.521 414.71 544.916 414.71C544.916 400.918 544.916 387.054 544.916 372.94C539.127 372.94 534.014 372.94 528.547 372.94C528.547 370.807 528.547 368.931 528.547 366.757C541.536 366.757 554.443 366.757 567.738 366.757C567.738 368.575 567.738 370.11 567.738 372.223C562.616 372.223 557.54 372.223 551.819 372.223C551.819 375.053 551.819 377.32 551.819 380.075Z" fill="#A7D43E"/>
<path d="M868.183 411.692C868.181 396.602 868.181 381.981 868.181 367.041C870.606 367.041 872.523 367.041 874.795 367.041C874.795 382.801 874.795 398.542 874.795 414.715C872.451 414.114 868.88 417.641 868.183 411.692Z" fill="#A7D43E"/>
<path d="M993.148 408.899C993.148 411.026 993.148 412.669 993.148 414.664C990.787 414.664 988.753 414.664 986.459 414.664C986.459 398.76 986.459 383.029 986.459 367.007C988.65 367.007 990.566 367.007 993.148 367.007C993.148 380.882 993.148 394.648 993.148 408.899Z" fill="#A7D43E"/>
<path d="M481.148 387C481.148 396.46 481.148 405.42 481.148 414.696C478.849 414.696 476.931 414.696 474.595 414.696C474.595 398.918 474.595 383.078 474.595 366.977C476.696 366.977 478.615 366.977 481.148 366.977C481.148 373.612 481.148 380.056 481.148 387Z" fill="#A7D43E"/>
<path d="M1181.17 354.281C1185.06 354.3 1183.49 356.599 1183.01 358.048C1181.6 362.251 1177.19 363.847 1173.34 361.145C1169.66 358.56 1166.53 355.838 1163.58 361.804C1163.41 362.151 1162.13 361.948 1161.18 362.014C1160.6 358.092 1162.07 355.235 1165.37 354.347C1168.27 353.565 1171.69 352.747 1173.96 356.584C1175.74 359.584 1176.92 359.108 1181.17 354.281Z" fill="#A7D43E"/>
<path d="M382.316 339.737C382.081 338.077 382.098 336.128 382.467 334.096C382.736 335.824 382.652 337.636 382.316 339.737Z" fill="#79AA2A"/>
<path d="M0.817023 344.401C1.1027 346.16 1.30701 348.357 1.20533 350.797C0.844763 348.973 0.790198 346.905 0.817023 344.401Z" fill="#2744BC"/>
<path d="M381.507 344.918C381.215 344.106 381.217 343.112 381.548 342.062C381.851 342.917 381.826 343.826 381.507 344.918Z" fill="#79AA2A"/>
<path d="M380.507 349.919C380.22 349.104 380.228 348.107 380.567 347.058C380.866 347.916 380.834 348.826 380.507 349.919Z" fill="#79AA2A"/>
<path d="M200.04 50.63C199.413 50.149 198.719 49.3522 198.043 48.1772C198.698 48.6375 199.335 49.4758 200.04 50.63Z" fill="#5594E7"/>
<path d="M302.95 205.687C302.115 205.513 301.119 205.066 300.092 204.255C300.971 204.399 301.88 204.906 302.95 205.687Z" fill="#96C533"/>
<path d="M299.937 203.661C299.107 203.473 298.112 203.015 297.09 202.191C297.966 202.347 298.868 202.869 299.937 203.661Z" fill="#96C533"/>
<path d="M231.06 100.639C230.432 100.158 229.732 99.3602 229.05 98.1835C229.708 98.644 230.348 99.4831 231.06 100.639Z" fill="#4E88E1"/>
<path d="M207.081 61.6383C206.446 61.1579 205.735 60.3618 205.042 59.183C205.708 59.6411 206.356 60.4818 207.081 61.6383Z" fill="#5594E7"/>
<path d="M228.045 95.6462C227.413 95.167 226.723 94.3686 226.047 93.1946C226.704 93.6551 227.345 94.491 228.045 95.6462Z" fill="#4E88E1"/>
<path d="M0.874184 334.131C1.12089 334.54 1.15012 335.087 1.04667 335.806C0.828255 335.408 0.74247 334.838 0.874184 334.131Z" fill="#C3DBF9"/>
<path d="M201.662 52.7046C201.19 52.4853 200.631 52.0056 200.064 51.2136C200.562 51.4156 201.069 51.9299 201.662 52.7046Z" fill="#5594E7"/>
<path d="M225.061 90.6829C224.766 90.5159 224.413 90.0611 224.032 89.3002C224.337 89.461 224.669 89.9282 225.061 90.6829Z" fill="#4E88E1"/>
<path d="M194.314 41.9432C193.89 41.7288 193.486 41.1396 193.07 40.182C193.483 40.3985 193.909 40.9835 194.314 41.9432Z" fill="#5594E7"/>
<path d="M375.095 287.72C374.955 287.717 374.777 287.473 374.758 287.123C374.916 287.016 375.057 287.48 375.095 287.72Z" fill="#82B32E"/>
<path d="M282.852 191.846C282.553 191.925 282.234 191.731 281.943 191.253C282.259 191.171 282.546 191.372 282.852 191.846Z" fill="#4E88E1"/>
<path d="M305.185 207.432C304.945 207.57 304.609 207.452 304.163 207.074C304.399 206.935 304.743 207.056 305.185 207.432Z" fill="#96C533"/>
<path d="M581.795 408.624C581.835 408.762 581.479 408.762 581.479 408.762C581.479 408.762 581.239 408.498 581.274 408.325C581.511 408.193 581.659 408.304 581.795 408.624Z" fill="#C3DBF9"/>
<path d="M813.796 408.624C813.836 408.762 813.479 408.762 813.479 408.762C813.479 408.762 813.239 408.498 813.274 408.325C813.511 408.193 813.66 408.304 813.796 408.624Z" fill="#C3DBF9"/>
<path d="M225.617 370.993C236.585 381.608 244.868 393.627 249.004 408.605C235.224 405.544 221.307 408.113 207.447 408.086C197.185 408.066 186.922 408.012 176.66 408.004C158.596 407.99 140.528 408.229 122.468 407.929C107.317 407.678 92.1776 406.763 77.0291 406.265C74.5846 406.184 72.1216 406.933 69.6629 406.964C61.9283 407.062 54.189 406.872 46.4565 407.033C37.1754 407.226 27.8959 407.593 18.6232 408.04C15.4056 408.195 13.2411 407.562 12.4137 403.968C9.71457 392.244 6.81995 380.564 4.00146 368.431C17.4855 367.663 30.9698 367.006 44.4514 367.06C88.1553 367.233 131.859 367.613 175.561 368.031C189.775 368.167 203.988 368.584 218.194 369.082C220.554 369.164 222.876 370.324 225.617 370.993Z" fill="#2A49BF"/>
<path d="M153.143 318.286C153.964 318.442 154.932 318.884 155.95 319.674C155.096 319.539 154.192 319.056 153.143 318.286Z" fill="#223BAB"/>
<path d="M150.89 316.356C151.536 316.469 152.224 316.904 152.956 317.67C152.56 317.996 152.119 317.99 151.348 317.976C150.989 317.538 150.96 317.108 150.89 316.356Z" fill="#223BAB"/>
<path d="M87.0139 169.985C84.442 167.196 81.8701 164.408 79.149 161.315C78.1699 158.724 77.3401 156.438 76.1974 153.289C82.3299 151.507 88.5366 149.547 94.8266 147.907C107.153 144.693 119.51 141.588 131.891 138.592C135.249 137.779 138.803 137.762 142.147 136.91C144.25 136.374 146.13 134.964 148.338 133.557C167.369 140.22 186.269 147.027 204.942 154.409C218.114 159.617 230.976 165.605 244.248 171.51C239.868 177.861 232.423 176.887 226.193 178.877C218.058 181.475 209.773 183.623 201.496 185.745C187.769 189.263 174.001 192.62 160.243 196.015C154.551 197.419 148.841 198.746 142.593 200.238C143.605 202.438 144.264 203.871 144.958 205.668C131.04 197.568 117.05 189.164 103.159 180.599C99.5119 178.35 96.1721 175.602 92.3455 173.039C90.904 172.326 89.808 171.657 88.2521 170.77C87.592 170.282 87.3326 170.093 87.0139 169.985Z" fill="#A5D436"/>
<path d="M140.344 284.966C138.954 284.276 137.889 283.66 136.336 282.758C135.234 282.015 134.62 281.557 133.941 280.714C132.747 279.932 131.617 279.535 130.184 279.09C128.925 278.673 127.972 278.306 127.018 277.938C125.172 276.779 123.326 275.619 121.233 274.237C121.995 272.725 122.781 270.626 124.047 270.28C132.199 268.05 140.444 266.155 148.68 264.243C163.694 260.756 178.758 257.475 193.729 253.813C199.447 252.414 204.966 250.202 211.801 247.959C208.594 244.919 205.828 242.297 203.022 239.322C203.429 238.984 203.876 239 204.66 239.035C220.459 248.603 235.923 258.151 251.692 267.846C255.801 270.895 259.604 273.797 263.705 277.27C264.231 279.949 264.46 282.057 264.732 284.561C237.805 291.244 210.876 297.927 183.23 304.789C183.235 304.749 183.078 306.027 182.921 307.305C171.759 301.394 160.598 295.483 149.145 288.936C147.72 287.912 146.587 287.524 145.454 287.135C143.858 286.437 142.263 285.738 140.344 284.966Z" fill="#79AA2A"/>
<path d="M183.148 307.545C183.078 306.027 183.235 304.749 183.23 304.789C210.876 297.927 237.805 291.244 264.732 284.561C264.46 282.057 264.231 279.949 264.004 277.425C277.937 287.569 291.105 298.93 301.564 313.096C303.334 315.494 304.841 318.086 306.741 320.789C307.657 322.427 308.302 323.866 308.981 325.642C308.761 328.296 308.507 330.612 308.106 334.273C296.04 337.361 283.116 340.703 270.171 343.967C263.653 345.61 257.122 347.224 250.546 348.613C248.492 349.046 246.273 348.7 243.979 349.045C231.673 340.238 219.517 331.095 207.04 321.389C206.115 320.571 205.512 320.317 204.908 320.063C204.908 320.063 204.996 320.034 204.929 319.691C203.788 318.94 202.715 318.531 201.642 318.122C201.177 317.934 200.712 317.746 200.06 316.974C198.806 315.964 197.74 315.539 196.674 315.113C192.241 312.671 187.808 310.228 183.148 307.545Z" fill="#71A328"/>
<path d="M109.146 109.273C109.956 109.505 110.92 110.01 111.899 110.883C111.043 110.682 110.172 110.115 109.146 109.273Z" fill="#4E88E1"/>
<path d="M105.647 106.268C105.735 105.584 105.998 105.18 106.567 104.582C106.897 105.037 106.92 105.687 106.916 106.823C106.533 107.056 106.177 106.803 105.647 106.268Z" fill="#4E88E1"/>
<path d="M201.852 318.377C202.715 318.531 203.788 318.94 204.9 319.727C203.98 319.615 203.021 319.123 201.852 318.377Z" fill="#79AA2A"/>
<path d="M196.878 315.373C197.74 315.539 198.806 315.964 199.91 316.769C198.992 316.643 198.037 316.138 196.878 315.373Z" fill="#79AA2A"/>
<path d="M145.676 287.402C146.587 287.523 147.72 287.912 148.912 288.685C147.947 288.603 146.923 288.136 145.676 287.402Z" fill="#82B32E"/>
<path d="M205.084 320.322C205.512 320.317 206.115 320.571 206.813 321.161C206.358 321.192 205.809 320.887 205.084 320.322Z" fill="#79AA2A"/>
<path d="M107.152 103.994C107.06 103.473 107.28 102.925 107.722 102.176C107.783 102.639 107.624 103.303 107.152 103.994Z" fill="#4E88E1"/>
<path d="M86.7922 170.142C87.3326 170.093 87.592 170.282 87.9039 170.769C87.5286 171.159 87.0416 171.332 86.5547 171.505C86.56 171.103 86.5653 170.701 86.7922 170.142Z" fill="#82B32E"/>
<path d="M127.07 278.306C127.972 278.306 128.925 278.673 130.386 279.337C131.371 280.04 131.849 280.448 132.326 280.855C130.592 280.128 128.857 279.401 127.07 278.306Z" fill="#223BAB"/>
<path d="M134.006 281.099C134.62 281.557 135.234 282.015 136.027 282.699C135.181 282.556 134.155 282.187 133.311 281.46C133.664 281.101 133.835 281.1 134.006 281.099Z" fill="#223BAB"/>
<path d="M133.941 280.714C133.835 281.1 133.664 281.101 133.236 281.115C132.98 281.127 132.685 280.912 132.506 280.883C131.849 280.448 131.371 280.04 130.691 279.386C131.617 279.535 132.747 279.932 133.941 280.714Z" fill="#82B32E"/>
<path d="M138.211 53.8754C138.336 52.9203 138.855 51.9523 139.635 50.7652C139.466 51.6515 139.036 52.757 138.211 53.8754Z" fill="#5594E7"/>
<path d="M136.086 56.9068C136.252 56.0088 136.8 55.1027 137.621 54.0342C137.419 54.8808 136.942 55.8897 136.086 56.9068Z" fill="#5594E7"/>
<path d="M143.195 45.929C143.02 45.362 143.163 44.7888 143.559 44.0559C143.713 44.5717 143.613 45.2472 143.195 45.929Z" fill="#5594E7"/>
<path d="M141.797 47.8369C141.773 47.3751 142.091 46.8165 142.675 46.0785C142.674 46.5128 142.406 47.1264 141.797 47.8369Z" fill="#5594E7"/>
</svg>
