<svg width="500" height="500" viewBox="0 0 500 500" fill="none" xmlns="http://www.w3.org/2000/svg">
<rect width="500" height="500" rx="107" fill="#2B7CC2"/>
<path d="M293.681 391.406C287.521 393.963 281.473 396.854 275.167 398.976C269.608 400.847 263.824 402.384 258.02 403.102C252.257 403.816 246.343 403.263 240.498 403.375C230.227 403.573 220.331 401.218 210.931 397.642C199.232 393.191 188.465 386.976 178.963 378.429C171.003 371.27 164.51 363.155 158.828 353.853C158.941 353.302 159.029 353.132 159.149 352.99C159.184 352.949 159.35 352.951 159.396 352.996C160.581 354.142 161.703 356.212 162.945 356.286C167.767 356.574 172.627 356.102 177.471 356.14C193.319 356.264 209.166 356.577 225.015 356.635C233.038 356.665 241.061 356.214 249.086 356.139C259.118 356.046 269.152 356.083 279.184 356.139C282.002 356.154 284.819 356.561 287.636 356.557C290.63 356.552 293.624 356.273 296.619 356.392C296.835 368.458 294.092 379.765 290.544 390.876C291.921 391.108 292.801 391.257 293.681 391.406Z" fill="#2139B6"/>
<path d="M145.153 307.809C145.082 306.983 145.01 306.157 145.178 304.942C145.296 303.243 145.174 301.932 145.052 300.622C145.066 299.211 145.08 297.799 145.157 296.021C145.202 295.327 145.185 295.001 145.167 294.675C146.052 290.109 146.824 285.516 147.863 280.985C148.524 278.101 149.582 275.308 150.714 272.283C151.006 272.956 151.257 273.877 151.046 274.675C150.368 277.236 149.519 279.753 148.588 282.764C150.25 282.989 151.566 283.31 152.885 283.324C168.354 283.488 183.824 283.636 199.295 283.716C203.4 283.738 207.506 283.455 211.613 283.41C218.912 283.331 226.248 282.899 233.328 285.359C233.68 285.482 234.171 285.206 234.793 285.121C235.253 285.129 235.516 285.133 235.779 285.136C235.779 285.136 235.777 285.135 235.864 285.306C236.49 285.765 237.029 286.053 237.666 286.486C238.093 286.731 238.422 286.83 238.871 287.091C245.942 291.547 252.897 295.833 259.841 300.135C267.18 304.683 273.679 310.221 279.094 316.745C277.459 316.346 276.074 315.654 274.666 315.605C266.192 315.308 257.715 315.059 249.236 314.978C223.168 314.728 197.1 314.502 171.031 314.399C162.989 314.367 154.946 314.759 146.806 314.731C146.576 313.045 146.55 311.564 146.27 310.132C146.111 309.316 145.539 308.581 145.153 307.809Z" fill="#3459C8"/>
<path d="M170.408 225.514C166.833 220.72 163.246 215.935 159.697 211.121C159.133 210.357 158.744 209.464 158.431 208.435C160.622 210.739 162.803 210.391 165.771 209.552C176.195 206.607 186.767 204.183 197.296 201.616C198.98 201.206 199.603 200.274 199.599 198.667C201.882 200.196 203.874 201.835 206.05 203.177C214.335 208.286 222.68 213.299 231.122 218.509C239.201 223.076 247.175 227.457 255.117 231.896C258.642 233.868 262.102 235.957 265.616 238.204C267.29 239.979 268.94 241.543 270.853 243.356C266.776 244.694 263.484 246.014 260.073 246.848C251.143 249.033 242.158 250.99 233.202 253.069C228.289 254.21 223.371 255.34 218.509 256.67C217.754 256.877 217.285 258.129 216.464 258.888C214.98 258.159 213.708 257.45 212.45 256.718C197.585 248.066 183.23 238.734 171.429 225.989C171.193 225.734 170.753 225.668 170.408 225.514Z" fill="#82B32E"/>
<path d="M145.12 308.084C145.539 308.581 146.111 309.316 146.27 310.132C146.55 311.564 146.576 313.045 146.805 314.991C148.584 322.454 150.311 329.42 151.921 336.414C152.414 338.558 153.705 338.935 155.625 338.843C161.156 338.576 166.691 338.357 172.227 338.242C176.839 338.146 181.456 338.259 186.069 338.201C187.536 338.182 189.005 337.736 190.463 337.784C199.499 338.081 208.529 338.627 217.567 338.777C228.339 338.955 239.117 338.813 249.892 338.821C256.013 338.826 262.134 338.858 268.256 338.87C276.523 338.886 284.825 337.354 293.221 339.55C294.47 345.161 295.544 350.638 296.618 356.114C293.624 356.273 290.63 356.552 287.636 356.557C284.819 356.561 282.002 356.154 279.184 356.139C269.152 356.083 259.118 356.046 249.086 356.139C241.061 356.214 233.038 356.665 225.014 356.635C209.166 356.577 193.319 356.264 177.471 356.14C172.627 356.102 167.767 356.574 162.945 356.286C161.703 356.212 160.581 354.142 159.396 352.996C159.35 352.951 159.184 352.948 159.149 352.99C159.028 353.132 158.941 353.302 158.818 353.64C150.315 339.844 145.305 324.824 145.12 308.084Z" fill="#2744BC"/>
<path d="M344.243 350.93C335.557 358.801 326.974 366.79 318.138 374.49C313.931 378.155 309.242 381.268 304.468 384.598C306.138 376.924 308.54 369.362 309.981 361.622C312.063 350.434 311.081 339.359 307.002 328.611C303.333 318.946 297.118 311.086 290.047 303.653C291.415 303.447 292.739 303.654 293.964 303.395C297.886 302.567 301.782 301.604 305.67 300.624C313.391 298.677 321.1 296.684 328.298 294.842C328.537 292.658 328.688 291.276 329.023 289.996C333.204 297.274 336.083 304.781 336.003 313.44C337.056 328.192 332.239 341.25 325.56 354.537C327.066 353.901 327.743 353.489 328.476 353.327C333.676 352.171 338.618 349.283 344.243 350.93Z" fill="#679826"/>
<path d="M233.348 96.1637C237.015 96.6207 240.681 97.0778 244.535 97.6866C244.723 97.8384 244.721 97.8068 244.474 97.8573C241.392 98.0891 238.553 98.4583 235.721 98.4187C224.449 98.2608 214.1 101.342 204.907 107.712C193.935 115.315 189.771 125.617 192.957 137.736C195.223 146.352 200.566 153.101 207.533 158.839C207.849 159.158 208.062 159.309 208.357 159.603C208.803 159.987 209.165 160.228 209.62 160.632C210.232 161.134 210.752 161.472 211.326 161.929C211.499 162.19 211.65 162.269 211.952 162.45C219.091 166.706 226.112 170.795 232.998 175.117C231.681 175.956 230.559 176.797 229.305 177.117C227.31 177.625 225.19 177.635 223.187 178.12C215.802 179.907 208.432 181.759 201.079 183.676C197.327 184.655 193.625 185.824 189.967 186.887C190.649 188.765 191.143 190.129 191.461 191.404C183.166 183.689 176.668 175.021 173.647 163.843C171.506 155.956 171.179 148.207 173.002 140.477C175.513 129.83 180.728 120.821 188.869 113.296C200.781 102.285 214.605 96.6241 230.796 96.6185C231.646 96.6182 232.497 96.3221 233.348 96.1637Z" fill="#AEDB39"/>
<path d="M289.957 303.853C297.118 311.086 303.333 318.946 307.002 328.611C311.081 339.358 312.063 350.434 309.981 361.622C308.54 369.362 306.138 376.924 304.292 384.702C300.979 386.997 297.539 389.154 293.89 391.358C292.801 391.257 291.921 391.108 290.544 390.876C294.092 379.765 296.835 368.458 296.619 356.392C295.544 350.638 294.47 345.161 293.219 339.315C290.577 330.246 285.637 323.076 279.333 316.749C273.679 310.221 267.18 304.683 259.841 300.135C252.897 295.832 245.942 291.547 239.005 286.938C240.81 286.918 242.603 287.213 244.396 287.509C243.484 285.467 242.104 284.292 241.235 282.817C238.828 278.73 236.27 274.89 232.908 271.404C231.231 269.665 229.584 267.464 228.23 265.43C229.374 265.891 230.326 266.308 231.41 266.884C232.154 267.321 232.765 267.6 233.515 268.028C240.311 271.704 246.969 275.23 253.762 278.899C256.541 280.499 259.185 281.956 261.951 283.568C262.643 284.024 263.212 284.325 263.872 284.749C264.239 284.983 264.516 285.095 264.919 285.359C265.616 285.805 266.188 286.098 266.777 286.37C266.794 286.348 266.742 286.365 266.846 286.52C267.279 286.857 267.606 287.039 268.069 287.357C275.455 292.946 282.706 298.399 289.957 303.853Z" fill="#223BAB"/>
<path d="M265.592 237.993C262.102 235.957 258.642 233.868 255.116 231.896C247.175 227.457 239.201 223.076 231.1 218.292C230.568 217.058 230.175 216.203 229.571 214.892C233.298 214.001 236.704 213.21 240.099 212.372C248.306 210.347 256.518 208.345 264.706 206.246C269.643 204.981 274.585 203.699 279.437 202.15C283.154 200.963 287.595 201.543 290.564 197.969C295.574 200.525 300.388 203.028 305.206 205.524C307.713 206.823 310.227 208.109 312.738 209.4C312.738 209.4 312.72 209.384 312.697 209.543C312.865 209.817 313.056 209.933 313.246 210.048C315.994 211.866 318.743 213.684 321.616 215.888C322.336 216.548 322.93 216.821 323.524 217.094C323.524 217.094 323.474 217.123 323.505 217.313C324.13 217.771 324.724 218.038 325.319 218.304C325.513 218.318 325.666 218.404 325.894 218.844C326.211 219.194 326.413 219.264 326.614 219.335C326.614 219.335 326.682 219.278 326.6 219.51C326.067 220.066 325.66 220.542 325.157 220.69C322.696 221.412 320.204 222.024 317.734 222.717C310.993 224.607 304.298 226.677 297.511 228.382C288.153 230.733 278.71 232.743 269.357 235.113C268.321 235.375 267.639 237.034 266.593 238.033C266.126 238.012 265.859 238.003 265.592 237.993Z" fill="#9DCC34"/>
<path d="M350.338 239.715C357.986 247.403 363.783 256.337 368.067 266.499C368.066 266.926 368.172 267.071 368.278 267.217C368.458 267.497 368.638 267.778 368.666 268.365C368.784 270.448 369.052 272.226 369.305 273.905C365.549 274.702 362.105 275.457 358.65 276.162C349.32 278.065 340.003 280.039 330.642 281.779C327.875 282.293 326.371 282.95 328.135 285.945C328.235 286.114 327.82 286.586 327.483 286.798C326.35 285.186 325.451 283.64 324.395 282.21C318.157 273.76 310.303 266.983 301.814 260.592C299.367 258.768 297.098 257.037 294.828 255.087C294.479 253.893 294.132 252.919 293.7 251.702C294.757 251.276 295.618 250.746 296.545 250.584C302.745 249.495 308.979 248.592 315.164 247.426C326.092 245.365 336.997 243.178 347.899 240.982C348.762 240.808 349.527 240.149 350.338 239.715Z" fill="#90BF2E"/>
<path d="M312.743 209.181C310.227 208.109 307.713 206.823 305.206 205.524C300.388 203.028 295.574 200.525 290.402 197.811C282.291 194.233 274.618 190.661 266.762 187.555C255.624 183.151 244.35 179.091 233.134 174.884C226.112 170.795 219.091 166.706 212.214 162.442C215.701 162.065 219.047 161.668 222.387 161.701C230.146 161.777 237.901 162.169 245.66 162.233C257.552 162.33 269.446 162.262 281.339 162.252C282.377 162.251 283.416 162.162 284.572 162.108C284.394 160.689 284.261 159.634 284.129 158.579C287.978 165.001 291.967 171.344 295.643 177.863C301.455 188.167 307.058 198.589 312.743 209.181Z" fill="#4E88E1"/>
<path d="M284.099 158.387C284.261 159.634 284.394 160.689 284.572 162.108C283.416 162.162 282.377 162.251 281.339 162.252C269.446 162.262 257.552 162.33 245.66 162.233C237.901 162.169 230.146 161.777 222.387 161.701C219.047 161.668 215.701 162.065 212.096 162.275C211.65 162.269 211.499 162.19 211.318 161.71C210.679 161.072 210.103 160.77 209.528 160.469C209.165 160.228 208.803 159.987 208.373 159.313C208.293 158.493 208.279 158.105 208.222 157.667C208.178 157.616 208.245 157.499 208.431 157.483C208.712 157.071 208.808 156.675 208.958 156.079C213.928 147.983 218.842 140.088 223.785 132.442C223.732 135.168 225.433 135.278 227.208 135.193C228.682 135.123 230.152 134.838 231.624 134.834C242.757 134.803 253.891 134.857 265.024 134.759C266.233 134.749 267.435 133.939 268.64 133.499C271.76 138.382 274.88 143.264 278.083 148.523C278.376 149.172 278.587 149.443 278.797 149.715C278.974 149.973 279.152 150.231 279.335 150.877C279.753 151.741 280.165 152.218 280.577 152.694C280.758 152.95 280.939 153.207 281.125 153.853C281.548 154.719 281.966 155.195 282.383 155.671C282.945 156.513 283.507 157.354 284.099 158.387Z" fill="#5594E7"/>
<path d="M234.597 285.116C234.171 285.206 233.68 285.482 233.328 285.359C226.248 282.899 218.912 283.331 211.613 283.41C207.506 283.455 203.4 283.738 199.295 283.716C183.824 283.636 168.354 283.488 152.885 283.324C151.566 283.31 150.25 282.989 148.589 282.764C149.519 279.753 150.368 277.236 151.046 274.675C151.257 273.877 151.006 272.956 150.76 272.055C153.54 264.367 156.509 256.711 159.522 249.072C160.617 246.296 161.819 243.562 163.225 240.707C168.407 244.573 173.165 248.779 178.296 252.467C194.968 264.453 213.335 273.557 231.374 283.207C232.288 283.696 233.449 283.721 234.52 284.154C234.562 284.603 234.579 284.86 234.597 285.116Z" fill="#3963CD"/>
<path d="M350.255 239.536C349.527 240.148 348.762 240.808 347.899 240.982C336.997 243.178 326.092 245.365 315.163 247.426C308.979 248.592 302.745 249.495 296.545 250.583C295.618 250.746 294.757 251.275 293.7 251.702C294.132 252.919 294.479 253.893 294.645 254.999C285.241 249.436 276.017 243.74 266.793 238.044C267.639 237.033 268.321 235.375 269.357 235.113C278.71 232.743 288.153 230.733 297.511 228.382C304.298 226.676 310.993 224.607 317.734 222.717C320.204 222.024 322.696 221.412 325.157 220.69C325.66 220.542 326.067 220.066 326.643 219.519C334.57 225.984 342.371 232.671 350.255 239.536Z" fill="#96C533"/>
<path d="M173.733 164.058C176.668 175.021 183.166 183.689 191.55 191.586C193.351 193.519 194.885 195.182 196.287 196.939C196.151 197.273 196.148 197.512 196.145 197.752C196.435 197.649 196.726 197.546 197.224 197.443C198.086 197.843 198.739 198.242 199.393 198.641C199.603 200.274 198.98 201.206 197.296 201.616C186.767 204.183 176.195 206.607 165.771 209.552C162.803 210.391 160.622 210.739 158.367 208.229C153.386 201.171 150.491 193.356 148.673 185.107C148.26 183.233 148.009 181.323 147.852 179.132C148.377 176.783 148.734 174.731 149.086 172.704C155.038 171.343 160.991 170.142 166.842 168.558C168.949 167.987 172.084 168.192 172.202 164.591C172.208 164.397 173.2 164.235 173.733 164.058Z" fill="#90BF2E"/>
<path d="M327.645 286.918C327.82 286.586 328.235 286.114 328.135 285.945C326.371 282.95 327.875 282.293 330.642 281.779C340.003 280.039 349.32 278.065 358.65 276.162C362.105 275.457 365.549 274.702 369.305 273.905C369.052 272.226 368.784 270.448 368.678 268.541C372.403 276.635 373.368 285.274 372.701 294.459C372.433 295.948 372.423 297.111 372.413 298.273C372.406 298.538 372.4 298.803 372.151 299.294C371.908 300.114 371.906 300.707 371.905 301.3C371.873 301.554 371.841 301.809 371.566 302.281C371.318 303.094 371.313 303.688 371.308 304.283C371.277 304.537 371.246 304.791 370.949 305.273C369.709 305.871 368.763 306.372 367.755 306.585C362.66 307.665 357.545 308.651 352.445 309.704C346.963 310.836 341.488 312.006 336.011 313.159C336.084 304.781 333.204 297.274 329.003 289.795C328.415 288.634 328.03 287.776 327.645 286.918Z" fill="#82B32E"/>
<path d="M173.647 163.843C173.2 164.235 172.208 164.397 172.202 164.591C172.084 168.192 168.949 167.987 166.842 168.558C160.991 170.142 155.038 171.343 149.086 172.704C148.734 174.731 148.377 176.783 147.793 178.899C147.114 168.955 147.12 158.957 150.71 149.424C154.442 139.515 159.72 130.591 167.031 122.721C176.87 112.13 188.526 104.729 202.131 100.152C212.099 96.7985 222.334 95.5904 233.075 96.1195C232.497 96.3221 231.646 96.6183 230.796 96.6186C214.605 96.6241 200.781 102.285 188.869 113.296C180.728 120.821 175.513 129.83 173.002 140.477C171.179 148.207 171.506 155.956 173.647 163.843Z" fill="#9DCC34"/>
<path d="M234.495 283.962C233.449 283.721 232.288 283.696 231.374 283.207C213.335 273.557 194.968 264.452 178.296 252.467C173.165 248.779 168.407 244.573 163.315 240.504C165.5 235.567 167.847 230.731 170.302 225.704C170.753 225.668 171.193 225.734 171.429 225.989C183.23 238.734 197.585 248.066 212.45 256.718C213.708 257.45 214.98 258.159 216.611 259.021C218.078 259.855 219.18 260.547 220.312 261.458C221.378 262.111 222.413 262.544 223.554 262.995C223.661 263.012 223.837 263.141 223.882 263.347C224.538 263.773 225.15 263.993 225.946 264.248C226.765 264.652 227.401 265.019 228.037 265.386C229.584 267.464 231.231 269.665 232.909 271.404C236.27 274.89 238.828 278.73 241.235 282.816C242.104 284.292 243.484 285.467 244.396 287.508C242.603 287.213 240.81 286.918 238.884 286.776C238.422 286.83 238.093 286.731 237.636 286.279C236.931 285.662 236.354 285.398 235.777 285.135C235.777 285.135 235.779 285.135 235.752 284.938C235.316 284.481 234.906 284.222 234.495 283.962Z" fill="#2744BC"/>
<path d="M336.004 313.439C341.489 312.006 346.963 310.836 352.445 309.704C357.545 308.651 362.66 307.664 367.755 306.585C368.763 306.372 369.709 305.87 370.905 305.46C367.777 319.407 360.666 331.429 351.694 342.462C349.395 345.29 346.941 347.991 344.401 350.84C338.619 349.283 333.676 352.171 328.476 353.327C327.744 353.489 327.066 353.901 325.561 354.537C332.239 341.25 337.056 328.192 336.004 313.439Z" fill="#79AA2A"/>
<path d="M268.625 133.337C267.435 133.939 266.233 134.749 265.024 134.759C253.892 134.857 242.758 134.803 231.624 134.834C230.152 134.838 228.682 135.123 227.208 135.193C225.433 135.278 223.732 135.168 223.816 132.263C224.367 131.023 224.915 130.212 225.69 129.396C226.201 128.789 226.485 128.187 226.763 127.612C226.756 127.639 226.723 127.596 226.958 127.588C227.449 126.921 227.706 126.261 227.979 125.447C228.294 124.875 228.593 124.46 229.096 123.986C229.46 123.562 229.619 123.196 229.781 122.855C229.782 122.881 229.741 122.851 229.93 122.848C230.179 122.441 230.239 122.038 230.397 121.455C234.852 114.613 239.241 107.972 243.53 101.267C244.169 100.269 244.336 98.9679 244.721 97.8069C244.721 97.8069 244.723 97.8385 244.707 97.8367C245.719 98.7728 246.987 99.5514 247.735 100.675C251.73 106.68 255.596 112.771 259.597 119.236C259.928 119.991 260.169 120.342 260.41 120.694C261.144 121.655 261.878 122.616 262.624 123.996C263.05 124.89 263.464 125.365 263.878 125.84C263.878 125.84 263.832 125.862 263.844 126.024C264.19 126.472 264.524 126.759 264.857 127.045C265.502 128.07 266.146 129.096 266.801 130.552C267.235 131.457 267.659 131.932 268.083 132.407C268.259 132.663 268.435 132.919 268.625 133.337Z" fill="#60A6F1"/>
<path d="M372.563 298.101C372.423 297.111 372.433 295.948 372.653 294.736C372.813 295.767 372.763 296.847 372.563 298.101Z" fill="#79AA2A"/>
<path d="M145.003 300.882C145.174 301.932 145.296 303.242 145.235 304.698C145.02 303.61 144.987 302.376 145.003 300.882Z" fill="#2744BC"/>
<path d="M372.08 301.191C371.906 300.707 371.908 300.114 372.105 299.488C372.286 299.997 372.271 300.54 372.08 301.191Z" fill="#79AA2A"/>
<path d="M371.484 304.174C371.313 303.688 371.318 303.094 371.52 302.468C371.698 302.979 371.679 303.522 371.484 304.174Z" fill="#79AA2A"/>
<path d="M263.837 125.652C263.464 125.365 263.05 124.89 262.647 124.189C263.037 124.463 263.417 124.963 263.837 125.652Z" fill="#5594E7"/>
<path d="M325.222 218.141C324.724 218.038 324.13 217.771 323.517 217.288C324.042 217.373 324.584 217.676 325.222 218.141Z" fill="#96C533"/>
<path d="M323.425 216.933C322.93 216.821 322.336 216.548 321.727 216.056C322.249 216.149 322.788 216.461 323.425 216.933Z" fill="#96C533"/>
<path d="M282.341 155.482C281.966 155.195 281.548 154.719 281.142 154.017C281.534 154.292 281.916 154.792 282.341 155.482Z" fill="#4E88E1"/>
<path d="M268.038 132.218C267.659 131.932 267.235 131.457 266.821 130.754C267.218 131.027 267.605 131.528 268.038 132.218Z" fill="#5594E7"/>
<path d="M280.542 152.504C280.165 152.218 279.753 151.741 279.351 151.041C279.742 151.316 280.125 151.814 280.542 152.504Z" fill="#4E88E1"/>
<path d="M145.038 294.757C145.185 295.001 145.202 295.327 145.14 295.756C145.01 295.518 144.959 295.179 145.038 294.757Z" fill="#C3DBF9"/>
<path d="M264.805 126.889C264.524 126.759 264.19 126.472 263.852 126C264.149 126.12 264.452 126.427 264.805 126.889Z" fill="#5594E7"/>
<path d="M278.762 149.543C278.587 149.443 278.376 149.172 278.149 148.718C278.33 148.814 278.529 149.093 278.762 149.543Z" fill="#4E88E1"/>
<path d="M260.422 120.47C260.169 120.342 259.928 119.991 259.68 119.42C259.927 119.549 260.18 119.898 260.422 120.47Z" fill="#5594E7"/>
<path d="M368.256 267.073C368.172 267.071 368.066 266.926 368.055 266.717C368.149 266.653 368.233 266.93 368.256 267.073Z" fill="#82B32E"/>
<path d="M313.234 209.886C313.056 209.933 312.865 209.817 312.692 209.532C312.88 209.483 313.051 209.603 313.234 209.886Z" fill="#4E88E1"/>
<path d="M326.555 219.182C326.413 219.264 326.212 219.194 325.946 218.969C326.087 218.886 326.292 218.958 326.555 219.182Z" fill="#96C533"/>
<path d="M279.094 316.744C285.637 323.076 290.577 330.246 293.044 339.18C284.825 337.354 276.523 338.886 268.256 338.87C262.134 338.858 256.013 338.826 249.892 338.821C239.117 338.813 228.339 338.955 217.567 338.777C208.529 338.627 199.499 338.081 190.463 337.784C189.005 337.735 187.536 338.182 186.069 338.201C181.456 338.259 176.839 338.146 172.227 338.242C166.691 338.357 161.156 338.576 155.625 338.843C153.705 338.935 152.414 338.557 151.921 336.414C150.311 329.42 148.584 322.454 146.903 315.216C154.946 314.758 162.989 314.367 171.031 314.398C197.1 314.502 223.168 314.728 249.236 314.978C257.715 315.059 266.192 315.308 274.666 315.604C276.074 315.654 277.459 316.345 279.094 316.744Z" fill="#2A49BF"/>
<path d="M235.864 285.306C236.354 285.398 236.931 285.662 237.538 286.133C237.029 286.053 236.49 285.765 235.864 285.306Z" fill="#223BAB"/>
<path d="M234.52 284.154C234.905 284.222 235.316 284.481 235.753 284.938C235.516 285.133 235.253 285.129 234.793 285.121C234.579 284.859 234.562 284.603 234.52 284.154Z" fill="#223BAB"/>
<path d="M196.419 196.846C194.885 195.182 193.351 193.519 191.728 191.674C191.144 190.129 190.649 188.765 189.967 186.887C193.625 185.824 197.327 184.655 201.079 183.676C208.432 181.759 215.802 179.907 223.187 178.12C225.191 177.635 227.31 177.625 229.305 177.117C230.56 176.797 231.681 175.956 232.998 175.117C244.35 179.091 255.624 183.151 266.762 187.555C274.618 190.661 282.29 194.233 290.207 197.755C287.595 201.543 283.154 200.963 279.437 202.15C274.585 203.699 269.643 204.981 264.706 206.246C256.518 208.345 248.306 210.347 240.099 212.372C236.704 213.21 233.298 214.001 229.571 214.892C230.175 216.203 230.568 217.058 230.982 218.13C222.68 213.299 214.335 208.286 206.049 203.177C203.874 201.836 201.882 200.196 199.599 198.667C198.739 198.242 198.086 197.843 197.157 197.314C196.764 197.023 196.609 196.91 196.419 196.846Z" fill="#A5D436"/>
<path d="M228.23 265.43C227.401 265.019 226.765 264.652 225.839 264.114C225.182 263.67 224.816 263.397 224.41 262.894C223.698 262.428 223.024 262.191 222.169 261.926C221.419 261.677 220.85 261.458 220.281 261.238C219.18 260.547 218.078 259.855 216.83 259.031C217.285 258.129 217.754 256.877 218.509 256.67C223.371 255.34 228.289 254.21 233.202 253.069C242.158 250.99 251.143 249.033 260.073 246.848C263.484 246.014 266.776 244.694 270.853 243.356C268.94 241.543 267.29 239.979 265.616 238.204C265.859 238.003 266.126 238.012 266.593 238.033C276.017 243.74 285.241 249.436 294.647 255.219C297.098 257.037 299.367 258.768 301.813 260.84C302.127 262.438 302.263 263.695 302.425 265.189C286.364 269.175 270.301 273.162 253.81 277.255C253.813 277.231 253.72 277.993 253.626 278.755C246.968 275.23 240.311 271.704 233.479 267.799C232.629 267.188 231.953 266.956 231.277 266.724C230.326 266.308 229.374 265.891 228.23 265.43Z" fill="#79AA2A"/>
<path d="M253.762 278.899C253.72 277.993 253.813 277.231 253.811 277.254C270.301 273.162 286.364 269.175 302.426 265.189C302.263 263.695 302.127 262.438 301.991 260.933C310.302 266.983 318.157 273.76 324.395 282.21C325.451 283.64 326.35 285.186 327.483 286.798C328.03 287.776 328.415 288.634 328.82 289.693C328.688 291.276 328.537 292.658 328.298 294.842C321.1 296.683 313.391 298.677 305.67 300.624C301.782 301.604 297.886 302.567 293.964 303.395C292.739 303.654 291.415 303.447 290.047 303.653C282.706 298.399 275.455 292.946 268.013 287.156C267.462 286.668 267.102 286.517 266.742 286.365C266.742 286.365 266.794 286.348 266.754 286.144C266.073 285.695 265.433 285.451 264.793 285.207C264.516 285.095 264.239 284.983 263.85 284.523C263.102 283.921 262.466 283.667 261.83 283.413C259.185 281.956 256.541 280.499 253.762 278.899Z" fill="#71A328"/>
<path d="M209.62 160.632C210.103 160.77 210.679 161.072 211.263 161.592C210.752 161.473 210.232 161.134 209.62 160.632Z" fill="#4E88E1"/>
<path d="M207.533 158.839C207.586 158.431 207.743 158.19 208.082 157.833C208.279 158.105 208.293 158.493 208.29 159.171C208.062 159.309 207.849 159.158 207.533 158.839Z" fill="#4E88E1"/>
<path d="M264.919 285.359C265.433 285.451 266.073 285.695 266.736 286.165C266.188 286.098 265.616 285.805 264.919 285.359Z" fill="#79AA2A"/>
<path d="M261.951 283.568C262.466 283.667 263.102 283.92 263.76 284.401C263.212 284.325 262.643 284.024 261.951 283.568Z" fill="#79AA2A"/>
<path d="M231.41 266.884C231.954 266.956 232.629 267.188 233.341 267.649C232.765 267.6 232.154 267.321 231.41 266.884Z" fill="#82B32E"/>
<path d="M266.846 286.52C267.102 286.517 267.462 286.668 267.878 287.02C267.607 287.039 267.279 286.857 266.846 286.52Z" fill="#79AA2A"/>
<path d="M208.431 157.483C208.376 157.172 208.507 156.845 208.771 156.399C208.808 156.675 208.712 157.071 208.431 157.483Z" fill="#4E88E1"/>
<path d="M196.287 196.939C196.609 196.91 196.764 197.023 196.95 197.313C196.726 197.546 196.435 197.649 196.145 197.752C196.148 197.512 196.151 197.273 196.287 196.939Z" fill="#82B32E"/>
<path d="M220.312 261.458C220.85 261.458 221.419 261.677 222.29 262.073C222.878 262.492 223.162 262.735 223.447 262.978C222.412 262.545 221.378 262.111 220.312 261.458Z" fill="#223BAB"/>
<path d="M224.449 263.124C224.816 263.397 225.182 263.67 225.655 264.078C225.15 263.993 224.538 263.773 224.035 263.339C224.245 263.125 224.347 263.125 224.449 263.124Z" fill="#223BAB"/>
<path d="M224.41 262.894C224.347 263.125 224.245 263.125 223.99 263.133C223.837 263.141 223.661 263.012 223.554 262.995C223.162 262.735 222.878 262.492 222.472 262.102C223.024 262.191 223.698 262.428 224.41 262.894Z" fill="#82B32E"/>
<path d="M226.958 127.588C227.032 127.018 227.341 126.441 227.807 125.733C227.706 126.261 227.449 126.921 226.958 127.588Z" fill="#5594E7"/>
<path d="M225.69 129.396C225.789 128.86 226.116 128.32 226.606 127.682C226.485 128.187 226.201 128.789 225.69 129.396Z" fill="#5594E7"/>
<path d="M229.93 122.848C229.826 122.51 229.911 122.168 230.148 121.73C230.239 122.038 230.179 122.441 229.93 122.848Z" fill="#5594E7"/>
<path d="M229.096 123.986C229.082 123.71 229.272 123.377 229.62 122.937C229.619 123.196 229.46 123.562 229.096 123.986Z" fill="#5594E7"/>
</svg>
